<svg viewBox="0 0 512 512" xmlns="http://www.w3.org/2000/svg" xmlns:xlink="http://www.w3.org/1999/xlink"><style>:root&gt;svg{display:none}:root&gt;svg:target{display:block}</style><svg viewBox="0 0 451.847 451.847" id="arrow-down-sign-to-navigate" xmlns="http://www.w3.org/2000/svg"><path d="M225.923 354.706c-8.098 0-16.195-3.092-22.369-9.263L9.27 151.157c-12.359-12.359-12.359-32.397 0-44.751 12.354-12.354 32.388-12.354 44.748 0l171.905 171.915 171.906-171.909c12.359-12.354 32.391-12.354 44.744 0 12.365 12.354 12.365 32.392 0 44.751L248.292 345.449c-6.177 6.172-14.274 9.257-22.369 9.257z"/></svg><svg viewBox="0 0 32 32" id="bag" xmlns="http://www.w3.org/2000/svg"><path d="M16 1a6 6 0 00-6 6v1h-.83a3.27 3.27 0 00-3.27 3.12l-.79 16.45A3.28 3.28 0 008.38 31h15.24a3.28 3.28 0 003.27-3.43l-.79-16.45A3.27 3.27 0 0022.83 8H22V7a6 6 0 00-6-6zm-4 6a4 4 0 018 0v1h-8zm-1.64 5.19a1 1 0 111 1 1 1 0 01-1-1zm9.28 0a1 1 0 111 1 1 1 0 01-1-1z" data-name="Layer 2"/></svg><svg viewBox="0 0 384 384" id="call" xmlns="http://www.w3.org/2000/svg"><path d="M353.188 252.052c-23.51 0-46.594-3.677-68.469-10.906-10.719-3.656-23.896-.302-30.438 6.417l-43.177 32.594c-50.073-26.729-80.917-57.563-107.281-107.26l31.635-42.052c8.219-8.208 11.167-20.198 7.635-31.448-7.26-21.99-10.948-45.063-10.948-68.583C132.146 13.823 118.323 0 101.333 0h-70.52C13.823 0 0 13.823 0 30.813 0 225.563 158.438 384 353.188 384c16.99 0 30.813-13.823 30.813-30.813v-70.323c-.001-16.989-13.824-30.812-30.813-30.812z"/></svg><svg viewBox="0 0 512 512" id="clock" xmlns="http://www.w3.org/2000/svg"><path d="M437.02 74.981C388.668 26.629 324.38 0 256 0S123.332 26.629 74.98 74.981C26.628 123.333 0 187.62 0 256s26.628 132.668 74.98 181.019C123.332 485.37 187.62 512 256 512s132.668-26.629 181.02-74.981C485.372 388.667 512 324.38 512 256s-26.628-132.668-74.98-181.019zM256 461.752c-113.453 0-205.752-92.3-205.752-205.752 0-.186.006-.37.007-.554 0-.047-.007-.092-.007-.139 0-.079.01-.155.012-.233.499-112.093 91.086-203.29 202.944-204.79.234-.011.466-.035.703-.035.142 0 .28.017.421.021.558-.004 1.114-.021 1.673-.021 113.453 0 205.752 92.3 205.752 205.752S369.453 461.752 256 461.752z"/><path d="M412.287 268.36c-8.366 0-15.148-6.782-15.148-15.148s6.782-15.148 15.148-15.148h18.259c-8.576-84.076-76.762-150.773-161.492-157.035v15.895c0 8.366-6.782 15.148-15.148 15.148s-15.148-6.782-15.148-15.148V81.391c-83.476 8.18-149.969 75.102-157.492 158.766h16.352c8.366 0 15.148 6.782 15.148 15.148s-6.782 15.148-15.148 15.148H81.142c6.965 85.011 74.791 153.045 159.71 160.342v-19.203c0-8.366 6.782-15.148 15.148-15.148s15.148 6.782 15.148 15.148v19.203c85.614-7.357 153.853-76.451 159.867-162.435h-18.728zm-94.967-52.258l-50.608 50.609a15.146 15.146 0 01-21.422 0l-88.093-88.093c-5.916-5.915-5.916-15.506 0-21.422 5.915-5.916 15.506-5.916 21.422 0l77.383 77.382L295.9 194.68c5.915-5.916 15.506-5.916 21.422 0 5.914 5.915 5.914 15.507-.002 21.422z"/></svg><svg viewBox="0 0 512 512" id="credit-card" xmlns="http://www.w3.org/2000/svg"><path d="M79.002 286.619h45.633v33.683H79.002z"/><path d="M481.659 197.397H30.341c-16.544 0-29.955 13.411-29.955 29.955v254.694C.386 498.589 13.797 512 30.341 512h451.318c16.544 0 29.955-13.411 29.955-29.955V227.352c0-16.544-13.411-29.955-29.955-29.955zM121.196 447.001H47.054v-29.955h74.142zm33.394-121.706c0 13.764-11.198 24.962-24.962 24.962H74.009c-13.764 0-24.962-11.198-24.962-24.962v-43.668c0-13.764 11.198-24.962 24.962-24.962h55.618c13.764 0 24.962 11.198 24.962 24.962v43.668zm81.189 121.706h-74.142v-29.955h74.142zm114.584 0h-74.142v-29.955h74.142zm114.583 0h-74.142v-29.955h74.142zM402.509 72.766L338.517 8.774c-11.698-11.698-30.664-11.698-42.363 0L137.486 167.442h175.756zm-1.84 94.676l46.839-49.677L423.7 93.957l-69.288 73.485zm80.99 0c6.434 0 12.63 1.032 18.444 2.918l-31.404-31.404-26.859 28.487h39.819z"/></svg><svg viewBox="0 0 24 24" id="ellipsis" xmlns="http://www.w3.org/2000/svg"><path d="M3 15c-1.654 0-3-1.346-3-3s1.346-3 3-3 3 1.346 3 3-1.346 3-3 3zm0-5c-1.103 0-2 .897-2 2s.897 2 2 2 2-.897 2-2-.897-2-2-2zm9 5c-1.654 0-3-1.346-3-3s1.346-3 3-3 3 1.346 3 3-1.346 3-3 3zm0-5c-1.103 0-2 .897-2 2s.897 2 2 2 2-.897 2-2-.897-2-2-2zm9 5c-1.654 0-3-1.346-3-3s1.346-3 3-3 3 1.346 3 3-1.346 3-3 3zm0-5c-1.103 0-2 .897-2 2s.897 2 2 2 2-.897 2-2-.897-2-2-2z"/></svg><svg viewBox="0 0 24 24" id="ellipsis_(1)" xmlns="http://www.w3.org/2000/svg"><path d="M12 6c-1.654 0-3-1.346-3-3s1.346-3 3-3 3 1.346 3 3-1.346 3-3 3zm0-5c-1.103 0-2 .897-2 2s.897 2 2 2 2-.897 2-2-.897-2-2-2zm0 14c-1.654 0-3-1.346-3-3s1.346-3 3-3 3 1.346 3 3-1.346 3-3 3zm0-5c-1.103 0-2 .897-2 2s.897 2 2 2 2-.897 2-2-.897-2-2-2zm0 14c-1.654 0-3-1.346-3-3s1.346-3 3-3 3 1.346 3 3-1.346 3-3 3zm0-5c-1.103 0-2 .897-2 2s.897 2 2 2 2-.897 2-2-.897-2-2-2z"/></svg><svg viewBox="0 0 512 512" id="email" xmlns="http://www.w3.org/2000/svg"><path d="M298.789 313.693c-12.738 8.492-27.534 12.981-42.789 12.981-15.254 0-30.05-4.489-42.788-12.981L3.409 173.82A76.269 76.269 0 010 171.403V400.6c0 26.278 21.325 47.133 47.133 47.133h417.733c26.278 0 47.133-21.325 47.133-47.133V171.402a75.21 75.21 0 01-3.416 2.422z"/><path d="M20.05 148.858l209.803 139.874c7.942 5.295 17.044 7.942 26.146 7.942 9.103 0 18.206-2.648 26.148-7.942L491.95 148.858c12.555-8.365 20.05-22.365 20.05-37.475 0-25.981-21.137-47.117-47.117-47.117H47.117C21.137 64.267 0 85.403 0 111.408a44.912 44.912 0 0020.05 37.45z"/></svg><svg viewBox="0 0 512.001 512.001" id="heart" xmlns="http://www.w3.org/2000/svg"><path d="M256.001 477.407c-2.59 0-5.179-.669-7.499-2.009-2.52-1.454-62.391-36.216-123.121-88.594-35.994-31.043-64.726-61.833-85.396-91.513C13.237 256.885-.214 219.943.003 185.49c.254-40.09 14.613-77.792 40.435-106.162 26.258-28.848 61.3-44.734 98.673-44.734 47.897 0 91.688 26.83 116.891 69.332 25.203-42.501 68.994-69.332 116.891-69.332 35.308 0 68.995 14.334 94.859 40.362 28.384 28.563 44.511 68.921 44.247 110.724-.218 34.393-13.921 71.279-40.728 109.632-20.734 29.665-49.426 60.441-85.279 91.475-60.508 52.373-119.949 87.134-122.45 88.588a15.008 15.008 0 01-7.541 2.032z"/></svg><svg viewBox="0 0 409.6 409.6" id="instagram" xmlns="http://www.w3.org/2000/svg"><path d="M307.2 0H102.4C46.085 0 0 46.065 0 102.4v204.8c0 56.315 46.085 102.4 102.4 102.4h204.8c56.315 0 102.4-46.085 102.4-102.4V102.4C409.6 46.065 363.515 0 307.2 0zM204.8 290.13c-47.135 0-85.335-38.216-85.335-85.33 0-47.135 38.2-85.335 85.335-85.335 47.114 0 85.335 38.2 85.335 85.335 0 47.114-38.221 85.33-85.335 85.33zm110.935-170.665c-14.152 0-25.6-11.464-25.6-25.6 0-14.136 11.448-25.6 25.6-25.6 14.152 0 25.6 11.464 25.6 25.6 0 14.136-11.448 25.6-25.6 25.6z"/></svg><svg viewBox="0 0 64 64" id="pin" xmlns="http://www.w3.org/2000/svg"><path d="M32 0A24.032 24.032 0 008 24c0 17.23 22.36 38.81 23.31 39.72a.99.99 0 001.38 0C33.64 62.81 56 41.23 56 24A24.032 24.032 0 0032 0zm0 35a11 11 0 1111-11 11.007 11.007 0 01-11 11z"/></svg><svg viewBox="0 0 512 512" id="search" xmlns="http://www.w3.org/2000/svg"><path d="M200 0c110.28 0 200 89.719 200 200 0 47.953-16.97 92.013-45.211 126.504L512 483.716 483.715 512l-157.21-157.211C292.012 383.03 247.953 400 200 400 89.72 400 0 310.281 0 200S89.72 0 200 0zm0 360c88.225 0 160-71.776 160-160S288.225 40 200 40 40 111.776 40 200s71.775 160 160 160z" data-original="#000000"/></svg><svg viewBox="0 0 512 512" id="shopping-bag" xmlns="http://www.w3.org/2000/svg"><path d="M511.645 445.527L469.498 131H356v-31C356 44.86 311.141 0 256 0S156 44.86 156 100v31H42.502L.416 445.028l-.061.499a60.075 60.075 0 0014.993 46.545A60.08 60.08 0 0060.005 512h391.99c17.016 0 33.292-7.263 44.656-19.927s16.829-29.629 14.994-46.546zM196 100c0-33.084 26.916-60 60-60s60 26.916 60 60v31H196v-31zm270.881 365.358c-3.844 4.283-9.13 6.642-14.886 6.642H60.005c-5.756 0-11.042-2.359-14.886-6.642-3.797-4.232-5.575-9.661-5.02-15.308L77.498 171H156v61h40v-61h120v61h40v-61h78.502L471.9 450.05c.556 5.647-1.222 11.076-5.019 15.308z"/></svg><svg viewBox="0 0 300 300" id="telegram" xmlns="http://www.w3.org/2000/svg"><path d="M5.299 144.645l69.126 25.8 26.756 86.047c1.712 5.511 8.451 7.548 12.924 3.891l38.532-31.412a11.496 11.496 0 0114.013-.391l69.498 50.457c4.785 3.478 11.564.856 12.764-4.926L299.823 29.22c1.31-6.316-4.896-11.585-10.91-9.259L5.218 129.402c-7.001 2.7-6.94 12.612.081 15.243zm91.57 12.066l135.098-83.207c2.428-1.491 4.926 1.792 2.841 3.726L123.313 180.87a23.112 23.112 0 00-7.163 13.829l-3.798 28.146c-.503 3.758-5.782 4.131-6.819.494l-14.607-51.325c-1.673-5.854.765-12.107 5.943-15.303z"/></svg><svg viewBox="0 0 512 512" id="user" xmlns="http://www.w3.org/2000/svg"><path d="M437.02 330.98c-27.883-27.882-61.071-48.523-97.281-61.018C378.521 243.251 404 198.548 404 148 404 66.393 337.607 0 256 0S108 66.393 108 148c0 50.548 25.479 95.251 64.262 121.962-36.21 12.495-69.398 33.136-97.281 61.018C26.629 379.333 0 443.62 0 512h40c0-119.103 96.897-216 216-216s216 96.897 216 216h40c0-68.38-26.629-132.667-74.98-181.02zM256 256c-59.551 0-108-48.448-108-108S196.449 40 256 40s108 48.448 108 108-48.449 108-108 108z"/></svg><svg viewBox="0 0 512 512" id="user-fill" xmlns="http://www.w3.org/2000/svg"><path d="M256 0c-74.439 0-135 60.561-135 135s60.561 135 135 135 135-60.561 135-135S330.439 0 256 0zm167.966 358.195C387.006 320.667 338.009 300 286 300h-60c-52.008 0-101.006 20.667-137.966 58.195C51.255 395.539 31 444.833 31 497c0 8.284 6.716 15 15 15h420c8.284 0 15-6.716 15-15 0-52.167-20.255-101.461-57.034-138.805z"/></svg><svg viewBox="0 0 512 512" id="wallet" xmlns="http://www.w3.org/2000/svg"><path d="M209 77.745c0-27.57 22.43-50 50-50h17.304l-5.22-14.51C268.149 5.075 260.459 0 252.263 0c-2.271 0-4.581.39-6.839 1.212L70.571 64.853C60.176 68.637 54.826 80.14 58.632 90.527l9.239 25.218H209z"/><path d="M259 57.745c-11.046 0-20 8.954-20 20v38h175v-38c0-11.046-8.954-20-20-20zm208 346.5h-70c-41.355 0-75-33.645-75-75s33.645-75 75-75h70v-68.5c0-22.091-17.909-40-40-40H40c-22.091 0-40 17.909-40 40V472c0 22.091 17.909 40 40 40h387c22.091 0 40-17.909 40-40z"/><path d="M497 284.245H397c-24.813 0-45 20.187-45 45s20.187 45 45 45h100c8.271 0 15-6.729 15-15v-60c0-8.271-6.729-15-15-15zm-100 60c-8.284 0-15-6.716-15-15s6.716-15 15-15 15 6.716 15 15-6.716 15-15 15z"/></svg></svg>