<svg id="Capa_1" height="512" width="512" xmlns="http://www.w3.org/2000/svg"><path d="M79.002 286.619h45.633v33.683H79.002z"/><path d="M481.659 197.397H30.341c-16.544 0-29.955 13.411-29.955 29.955v254.694C.386 498.589 13.797 512 30.341 512h451.318c16.544 0 29.955-13.411 29.955-29.955V227.352c0-16.544-13.411-29.955-29.955-29.955zM121.196 447.001H47.054v-29.955h74.142zm33.394-121.706c0 13.764-11.198 24.962-24.962 24.962H74.009c-13.764 0-24.962-11.198-24.962-24.962v-43.668c0-13.764 11.198-24.962 24.962-24.962h55.618c13.764 0 24.962 11.198 24.962 24.962v43.668zm81.189 121.706h-74.142v-29.955h74.142zm114.584 0h-74.142v-29.955h74.142zm114.583 0h-74.142v-29.955h74.142zM402.509 72.766L338.517 8.774c-11.698-11.698-30.664-11.698-42.363 0L137.486 167.442h175.756zm-1.84 94.676l46.839-49.677L423.7 93.957l-69.288 73.485zm80.99 0c6.434 0 12.63 1.032 18.444 2.918l-31.404-31.404-26.859 28.487h39.819z"/></svg>