<svg version="1.1" id="Capa_1" xmlns="http://www.w3.org/2000/svg" x="0" y="0" viewBox="0 0 512 512" xml:space="preserve"><path d="M511.645 445.527L469.498 131H356v-31C356 44.86 311.141 0 256 0S156 44.86 156 100v31H42.502L.416 445.028l-.061.499a60.075 60.075 0 0014.993 46.545A60.08 60.08 0 0060.005 512h391.99c17.016 0 33.292-7.263 44.656-19.927s16.829-29.629 14.994-46.546zM196 100c0-33.084 26.916-60 60-60s60 26.916 60 60v31H196v-31zm270.881 365.358c-3.844 4.283-9.13 6.642-14.886 6.642H60.005c-5.756 0-11.042-2.359-14.886-6.642-3.797-4.232-5.575-9.661-5.02-15.308L77.498 171H156v61h40v-61h120v61h40v-61h78.502L471.9 450.05c.556 5.647-1.222 11.076-5.019 15.308z"/></svg>