<svg id="Capa_1" height="512" width="512" xmlns="http://www.w3.org/2000/svg"><path d="M209 77.745c0-27.57 22.43-50 50-50h17.304l-5.22-14.51C268.149 5.075 260.459 0 252.263 0c-2.271 0-4.581.39-6.839 1.212L70.571 64.853C60.176 68.637 54.826 80.14 58.632 90.527l9.239 25.218H209z"/><path d="M259 57.745c-11.046 0-20 8.954-20 20v38h175v-38c0-11.046-8.954-20-20-20zm208 346.5h-70c-41.355 0-75-33.645-75-75s33.645-75 75-75h70v-68.5c0-22.091-17.909-40-40-40H40c-22.091 0-40 17.909-40 40V472c0 22.091 17.909 40 40 40h387c22.091 0 40-17.909 40-40z"/><path d="M497 284.245H397c-24.813 0-45 20.187-45 45s20.187 45 45 45h100c8.271 0 15-6.729 15-15v-60c0-8.271-6.729-15-15-15zm-100 60c-8.284 0-15-6.716-15-15s6.716-15 15-15 15 6.716 15 15-6.716 15-15 15z"/></svg>